<svg width="1058" height="243" viewBox="0 0 1058 243" fill="none" xmlns="http://www.w3.org/2000/svg">
<path d="M179.054 80.943C176.035 75.1477 168.224 73.2107 161.756 72.1706L161.698 72.5337C152.272 62.0678 140.132 54.7105 126.925 51.0381C121.958 45.9717 112.494 38.1101 103.227 40.2446C97.3269 41.602 91.8624 45.4853 87.0479 51.292C83.3725 52.3753 79.7364 53.7538 76.1737 55.4631C62.3731 62.0844 51.6335 72.5465 44.5835 84.964C36.9084 86.668 31.669 90.1902 29.3768 95.3852C26.8713 101.066 30.8855 109.006 34.8447 116.004L35.2253 115.789C34.7413 122.333 35.1208 128.989 36.4539 135.58L35.8966 135.241C29.3837 146.046 30.5526 153.18 32.6804 157.263C35.6842 163.029 42.2781 166.29 51.3535 167.176C59.611 177.372 70.322 184.954 82.1795 189.461C84.936 193.636 87.9922 197.104 91.3195 199.673C97.169 204.189 103.662 205.792 110.097 204.311C111.761 203.928 113.392 203.352 114.989 202.585C119.508 200.417 123.75 196.71 127.656 191.54C131.609 190.424 135.521 188.978 139.347 187.142C147.504 183.229 154.585 177.966 160.476 171.76L160.564 172.442C165.346 171.833 170.144 171.046 173.956 169.217C176.857 167.825 179.184 165.83 180.5 162.853C182.994 157.197 181.665 150.393 177.214 143.128C181.439 129.485 181.717 114.574 177.364 100.27C181.078 92.9669 181.846 86.3023 179.054 80.943ZM172.986 84.1057C173.903 85.867 174.094 88.0488 173.621 90.5456C173.514 90.3148 173.419 90.0822 173.309 89.8514C171.773 86.6508 170.023 83.6199 168.104 80.7519C170.649 81.6863 172.305 82.801 172.986 84.1057ZM167.14 92.8126C168.187 94.9953 169.096 97.2101 169.885 99.4427C167.151 103.95 163.045 108.937 157.685 114.115C154.798 112.301 151.082 111.951 147.79 113.531C147.238 113.796 146.728 114.111 146.248 114.455C137.98 109.113 128.513 103.982 118.083 99.3255C107.073 94.4104 96.0248 90.5426 85.5775 87.8921C85.4376 86.8013 85.1242 85.7394 84.6493 84.747C83.64 82.6433 82.0068 81.0464 80.0855 80.0512C82.9784 70.9034 86.7054 63.0984 91.0032 57.3262C120.901 49.5376 153.229 63.8176 167.14 92.8126ZM117.775 141.959C105.273 148.474 93.349 153.158 82.7038 156.185C81.9025 155.047 80.8801 154.083 79.6983 153.351C78.5165 152.619 77.1999 152.134 75.8279 151.925C74.649 145.202 73.8951 138.022 73.6436 130.562C73.2802 119.819 73.9952 109.276 75.5605 99.4767C77.0484 99.4639 78.5143 99.1241 79.855 98.4815C81.6978 97.5973 83.1485 96.2268 84.1446 94.6016C94.1353 97.1513 104.727 100.87 115.317 105.598C125.477 110.134 134.53 115.094 142.327 120.159C141.764 122.286 141.899 124.541 142.714 126.589C135.501 131.848 127.157 137.067 117.775 141.959ZM104.781 46.9366C106.974 46.4316 109.686 47.0192 112.658 48.5565C108.571 48.2591 104.443 48.2919 100.314 48.6984C101.773 47.8943 103.262 47.2863 104.781 46.9366ZM79.1471 61.6598C79.6067 61.4393 80.0721 61.2466 80.5336 61.0383C77.6506 66.3228 75.1404 72.421 73.0791 79.1498C72.3393 79.3165 71.6207 79.5655 70.9365 79.8921C68.8804 80.8786 67.3135 82.4688 66.3245 84.3459C64.9482 84.1984 63.5871 84.0698 62.2573 83.9798C59.0949 83.7668 56.1273 83.7309 53.3565 83.8559C59.6503 74.6028 68.3619 66.8344 79.1471 61.6598ZM35.641 98.1829C36.4496 96.3487 38.0752 94.8292 40.3753 93.64C38.9097 97.2606 37.7495 101 36.8755 104.813C35.5454 101.606 35.1161 99.3706 35.641 98.1829ZM49.0471 91.143C52.7303 90.6298 57.022 90.5074 61.8203 90.8313C62.9692 90.9087 64.1423 91.0168 65.3259 91.1385C65.4928 91.9809 65.7531 92.8164 66.1419 93.6268C66.8175 95.0348 67.7762 96.2102 68.909 97.1396C67.1768 107.631 66.4032 119.002 66.801 130.773C67.0666 138.642 67.8497 146.187 69.0878 153.248C66.5473 154.751 64.8713 157.221 64.2938 159.96C60.8359 160.353 57.6514 160.502 54.7763 160.417C52.3629 157.135 50.2082 153.597 48.382 149.791C39.1162 130.474 40.0636 108.871 49.0471 91.143ZM38.7475 154.098C37.2972 151.312 37.7427 147.891 38.9182 144.635C39.8507 147.37 40.9331 150.081 42.2138 152.75C43.2587 154.928 44.4032 157.024 45.6289 159.049C42.275 157.982 39.9061 156.323 38.7475 154.098ZM65.2715 166.902C67.0429 170.262 70.419 172.265 73.9857 172.402C74.8266 174.809 75.7677 177.18 76.8067 179.508C70.8153 176.298 65.3513 172.181 60.6082 167.302C62.121 167.216 63.6743 167.085 65.2715 166.902ZM108.543 197.615C104.108 198.637 99.7142 197.5 95.4858 194.235C94.9428 193.815 94.4154 193.328 93.887 192.848C101.113 194.29 108.58 194.628 116.031 193.805C113.58 195.736 111.06 197.036 108.543 197.615ZM86.6982 183.813C84.3778 179.941 82.3057 175.412 80.5321 170.348C82.9231 168.545 84.3536 165.804 84.5703 162.902C93.8204 160.242 103.783 156.434 114.078 151.495C116.353 150.404 118.648 149.255 120.951 148.055C130.733 142.954 139.582 137.46 147.306 131.829C150.118 133.384 153.601 133.612 156.708 132.121C157.042 131.961 157.362 131.782 157.67 131.593C162.727 135.972 166.739 140.246 169.617 144.209C163.93 159.788 152.439 173.236 136.377 180.943C120.236 188.687 102.466 189.205 86.6982 183.813ZM174.236 160.051C173.267 162.251 170.578 163.545 166.548 164.468C169.411 160.524 171.873 156.301 173.896 151.862C175.065 155.038 175.218 157.827 174.236 160.052M172.02 136.036C169.222 132.755 165.854 129.425 161.991 126.107C162.684 124.024 162.69 121.771 162.008 119.68C166.061 115.824 169.525 111.989 172.329 108.247C174.234 117.568 174.053 127.033 172.02 136.036Z" fill="black"/>
<path d="M336.131 97.324C336.131 107.044 332.945 114.874 326.573 120.814C320.201 126.754 310.643 129.724 297.899 129.724H275.057V178H263.717V64.762H297.899C310.535 64.762 320.039 67.732 326.411 73.672C332.891 79.612 336.131 87.496 336.131 97.324ZM297.899 120.004C315.611 120.004 324.467 112.444 324.467 97.324C324.467 89.764 322.361 84.04 318.149 80.152C313.937 76.264 307.187 74.32 297.899 74.32H275.057V120.004H297.899ZM403.597 179.296C395.281 179.296 387.775 177.46 381.079 173.788C374.491 170.008 369.253 164.716 365.365 157.912C361.585 151 359.695 142.954 359.695 133.774C359.695 124.594 361.639 116.602 365.527 109.798C369.415 102.886 374.707 97.594 381.403 93.922C388.099 90.142 395.605 88.252 403.921 88.252C412.237 88.252 419.743 90.142 426.439 93.922C433.243 97.594 438.535 102.886 442.315 109.798C446.203 116.602 448.147 124.594 448.147 133.774C448.147 142.846 446.203 150.838 442.315 157.75C438.427 164.662 433.081 170.008 426.277 173.788C419.473 177.46 411.913 179.296 403.597 179.296ZM403.597 169.414C409.429 169.414 414.829 168.118 419.797 165.526C424.765 162.826 428.761 158.83 431.785 153.538C434.917 148.138 436.483 141.55 436.483 133.774C436.483 125.998 434.971 119.464 431.947 114.172C428.923 108.772 424.927 104.776 419.959 102.184C414.991 99.484 409.591 98.134 403.759 98.134C397.927 98.134 392.527 99.484 387.559 102.184C382.591 104.776 378.595 108.772 375.571 114.172C372.655 119.464 371.197 125.998 371.197 133.774C371.197 141.55 372.655 148.138 375.571 153.538C378.595 158.83 382.537 162.826 387.397 165.526C392.365 168.118 397.765 169.414 403.597 169.414ZM489.878 58.12V178H478.538V58.12H489.878ZM598.178 89.548L545.69 219.634H533.864L551.036 177.514L514.748 89.548H527.222L557.354 165.04L586.514 89.548H598.178ZM653.731 179.296C643.579 179.296 635.263 176.974 628.783 172.33C622.411 167.578 618.847 161.152 618.091 153.052H629.755C630.295 158.02 632.617 162.07 636.721 165.202C640.933 168.226 646.549 169.738 653.569 169.738C659.725 169.738 664.531 168.28 667.987 165.364C671.551 162.448 673.333 158.83 673.333 154.51C673.333 151.486 672.361 149.002 670.417 147.058C668.473 145.114 665.989 143.602 662.965 142.522C660.049 141.334 656.053 140.092 650.977 138.796C644.389 137.068 639.043 135.34 634.939 133.612C630.835 131.884 627.325 129.346 624.409 125.998C621.601 122.542 620.197 117.952 620.197 112.228C620.197 107.908 621.493 103.912 624.085 100.24C626.677 96.568 630.349 93.652 635.101 91.492C639.853 89.332 645.253 88.252 651.301 88.252C660.805 88.252 668.473 90.682 674.305 95.542C680.137 100.294 683.269 106.882 683.701 115.306H672.361C672.037 110.122 669.985 105.964 666.205 102.832C662.533 99.592 657.457 97.972 650.977 97.972C645.253 97.972 640.609 99.322 637.045 102.022C633.481 104.722 631.699 108.07 631.699 112.066C631.699 115.522 632.725 118.384 634.777 120.652C636.937 122.812 639.583 124.54 642.715 125.836C645.847 127.024 650.059 128.374 655.351 129.886C661.723 131.614 666.799 133.288 670.579 134.908C674.359 136.528 677.599 138.904 680.299 142.036C682.999 145.168 684.403 149.326 684.511 154.51C684.511 159.262 683.215 163.528 680.623 167.308C678.031 170.98 674.413 173.896 669.769 176.056C665.125 178.216 659.779 179.296 653.731 179.296ZM730.319 99.106V154.024C730.319 159.424 731.345 163.15 733.397 165.202C735.449 167.254 739.067 168.28 744.251 168.28H754.619V178H742.469C734.477 178 728.537 176.164 724.649 172.492C720.761 168.712 718.817 162.556 718.817 154.024V99.106H706.505V89.548H718.817V67.354H730.319V89.548H754.619V99.106H730.319ZM777.857 133.612C777.857 124.54 779.639 116.602 783.203 109.798C786.875 102.886 791.897 97.594 798.269 93.922C804.749 90.142 812.039 88.252 820.139 88.252C828.563 88.252 835.799 90.196 841.847 94.084C848.003 97.972 852.431 102.94 855.131 108.988V89.548H866.471V178H855.131V158.398C852.323 164.446 847.841 169.468 841.685 173.464C835.637 177.352 828.401 179.296 819.977 179.296C811.985 179.296 804.749 177.406 798.269 173.626C791.897 169.846 786.875 164.5 783.203 157.588C779.639 150.676 777.857 142.684 777.857 133.612ZM855.131 133.774C855.131 126.646 853.673 120.382 850.757 114.982C847.841 109.582 843.845 105.424 838.769 102.508C833.801 99.592 828.293 98.134 822.245 98.134C815.981 98.134 810.365 99.538 805.397 102.346C800.429 105.154 796.487 109.258 793.571 114.658C790.763 119.95 789.359 126.268 789.359 133.612C789.359 140.848 790.763 147.22 793.571 152.728C796.487 158.128 800.429 162.286 805.397 165.202C810.365 168.01 815.981 169.414 822.245 169.414C828.293 169.414 833.801 167.956 838.769 165.04C843.845 162.124 847.841 157.966 850.757 152.566C853.673 147.166 855.131 140.902 855.131 133.774ZM916.822 99.106V154.024C916.822 159.424 917.848 163.15 919.9 165.202C921.952 167.254 925.57 168.28 930.754 168.28H941.122V178H928.972C920.98 178 915.04 176.164 911.152 172.492C907.264 168.712 905.32 162.556 905.32 154.024V99.106H893.008V89.548H905.32V67.354H916.822V89.548H941.122V99.106H916.822ZM1049.57 129.238C1049.57 133.126 1049.46 136.096 1049.25 138.148H975.862C976.186 144.844 977.806 150.568 980.722 155.32C983.638 160.072 987.472 163.69 992.224 166.174C996.976 168.55 1002.16 169.738 1007.78 169.738C1015.12 169.738 1021.28 167.956 1026.24 164.392C1031.32 160.828 1034.67 156.022 1036.29 149.974H1048.28C1046.12 158.614 1041.47 165.688 1034.34 171.196C1027.32 176.596 1018.47 179.296 1007.78 179.296C999.46 179.296 992.008 177.46 985.42 173.788C978.832 170.008 973.648 164.716 969.868 157.912C966.196 151 964.36 142.954 964.36 133.774C964.36 124.594 966.196 116.548 969.868 109.636C973.54 102.724 978.67 97.432 985.258 93.76C991.846 90.088 999.352 88.252 1007.78 88.252C1016.2 88.252 1023.54 90.088 1029.81 93.76C1036.18 97.432 1041.04 102.4 1044.39 108.664C1047.84 114.82 1049.57 121.678 1049.57 129.238ZM1038.07 128.914C1038.18 122.326 1036.83 116.71 1034.02 112.066C1031.32 107.422 1027.59 103.912 1022.84 101.536C1018.09 99.16 1012.91 97.972 1007.29 97.972C998.866 97.972 991.684 100.672 985.744 106.072C979.804 111.472 976.51 119.086 975.862 128.914H1038.07Z" fill="black"/>
</svg>
